<svg width="32" height="32" viewBox="0 0 32 32" fill="none" xmlns="http://www.w3.org/2000/svg">
    <path
        d="M21.8126 15.5223C22.2091 15.7639 22.2091 16.3681 21.8126 16.6097L12.8921 22.0469C12.4956 22.2886 12 21.9865 12 21.5032V10.6288C12 10.1455 12.4956 9.8434 12.8921 10.0851L21.8126 15.5223Z"
        fill="white" />
    <path
        d="M16 4C9.3832 4 4 9.3832 4 16C4 22.6168 9.3832 28 16 28C22.6168 28 28 22.6168 28 16C28 9.3832 22.6168 4 16 4ZM16 25.6C10.7068 25.6 6.4 21.2932 6.4 16C6.4 10.7068 10.7068 6.4 16 6.4C21.2932 6.4 25.6 10.7068 25.6 16C25.6 21.2932 21.2932 25.6 16 25.6Z"
        fill="white" />
</svg>