<svg width="48" height="48" viewBox="0 0 48 48" fill="none" xmlns="http://www.w3.org/2000/svg">
    <path
        d="M27.0377 4.78308L27.0229 13.3244L27.0078 21.8657L26.3093 19.883L26.3079 19.8792L25.4053 38.8945C26.2929 41.4158 26.7683 42.7618 26.7737 42.7671C26.7805 42.7743 27.2865 42.805 27.8977 42.8355C29.7495 42.9279 32.0444 43.1258 33.7853 43.3436C34.1884 43.3939 34.5353 43.4197 34.5563 43.4008C34.5771 43.3821 34.5884 34.6854 34.5815 24.0749L34.5687 4.78308H27.0377Z"
        fill="#B1060F" />
    <path
        d="M13.4165 4.7575V24.0689C13.4165 34.6903 13.4269 43.3908 13.4395 43.4035C13.4521 43.4162 14.106 43.3541 14.8927 43.2654C15.6791 43.1768 16.7664 43.0666 17.3085 43.0205C18.1399 42.9499 20.6221 42.7894 20.9094 42.7876C20.9931 42.7872 20.9984 42.3534 21.0106 34.6083L21.0234 26.4293L21.6239 28.1386L21.8364 28.7427L22.7389 9.73208L22.4288 8.85036C21.9656 7.53255 21.502 6.21487 21.038 4.89733L20.9882 4.7575H13.4165Z"
        fill="#B1060F" />
    <path
        d="M13.4165 4.7575V15.5975L21.0079 35.8539C21.0088 35.3896 21.0097 35.1389 21.0106 34.6083L21.0234 26.4293L21.6239 28.1386C24.9672 37.6545 26.763 42.7564 26.7737 42.7671C26.7805 42.7743 27.2865 42.805 27.8977 42.8355C29.7495 42.9279 32.0444 43.1258 33.7853 43.3436C34.1884 43.3939 34.5353 43.4197 34.5563 43.4008C34.5705 43.3879 34.5802 39.1236 34.5826 33.1081L27.0266 11.2566L27.0229 13.3244L27.0078 21.8657L26.3093 19.883C25.6266 17.9456 25.1711 16.65 22.4288 8.85036C21.9656 7.53255 21.502 6.21487 21.038 4.89733L20.9882 4.7575H13.4165Z"
        fill="url(#paint0_radial_172_66)" />
    <path
        d="M13.4165 4.7575L21.0232 26.4391L21.0234 26.4293L21.6239 28.1386C24.9672 37.6545 26.763 42.7564 26.7737 42.7671C26.7805 42.7743 27.2865 42.805 27.8977 42.8355C29.7495 42.9279 32.0444 43.1258 33.7853 43.3436C34.1864 43.3937 34.532 43.4191 34.5563 43.4008L27.0076 21.862L27.0078 21.8657L26.3093 19.883C25.6266 17.9456 25.1711 16.65 22.4288 8.85036C21.6912 6.75294 21.0655 4.97437 21.038 4.89733L20.9882 4.7575H13.4165Z"
        fill="#E50914" />
    <path
        d="M27.0377 4.78308L27.0229 13.3244L27.0078 21.8657L26.3093 19.883L26.3079 19.8792L25.4053 38.8945C26.2929 41.4158 26.7683 42.7618 26.7737 42.7671C26.7805 42.7743 27.2865 42.805 27.8977 42.8355C29.7495 42.9279 32.0444 43.1258 33.7853 43.3436C34.1884 43.3939 34.5353 43.4197 34.5563 43.4008C34.5771 43.3821 34.5884 34.6854 34.5815 24.0749L34.5687 4.78308H27.0377Z"
        fill="#B1060F" />
    <path
        d="M13.4165 4.7575V24.0689C13.4165 34.6903 13.4269 43.3908 13.4395 43.4035C13.4521 43.4162 14.106 43.3541 14.8927 43.2654C15.6791 43.1768 16.7664 43.0666 17.3085 43.0205C18.1399 42.9499 20.6221 42.7894 20.9094 42.7876C20.9931 42.7872 20.9984 42.3534 21.0106 34.6083L21.0234 26.4293L21.6239 28.1386L21.8364 28.7427L22.7389 9.73208L22.4288 8.85036C21.9656 7.53255 21.502 6.21487 21.038 4.89733L20.9882 4.7575H13.4165Z"
        fill="#B1060F" />
    <path
        d="M13.4166 4.59296V15.433L21.008 35.6893C21.0089 35.2251 21.0098 34.9744 21.0107 34.4438L21.0235 26.2647L21.6241 27.9741C24.9673 37.49 26.7634 42.5919 26.774 42.6026C26.7809 42.6097 27.2869 42.6404 27.898 42.6709C29.7498 42.7634 32.0448 42.9613 33.7857 43.1791C34.1888 43.2294 34.5356 43.2552 34.5567 43.2363C34.5708 43.2234 34.5803 38.959 34.5828 32.9435L27.0268 11.0921L27.0082 21.7012L26.3096 19.7184C25.627 17.7811 25.1712 16.4855 22.4289 8.68582C21.9657 7.36801 21.5021 6.05033 21.0382 4.73278L20.9883 4.59296H13.4166Z"
        fill="url(#paint1_radial_172_66)" />
    <path
        d="M13.4165 4.7575L21.0232 26.4391L21.0234 26.4293L21.6239 28.1386C24.9672 37.6545 26.763 42.7564 26.7737 42.7671C26.7805 42.7743 27.2865 42.805 27.8977 42.8355C29.7495 42.9279 32.0444 43.1258 33.7853 43.3436C34.1864 43.3937 34.532 43.4191 34.5563 43.4008L27.0076 21.862L27.0078 21.8657L26.3093 19.883C25.6266 17.9456 25.1711 16.65 22.4288 8.85036C21.6912 6.75294 21.0655 4.97437 21.038 4.89733L20.9882 4.7575H13.4165Z"
        fill="#E50914" />
    <defs>
        <radialGradient id="paint0_radial_172_66" cx="0" cy="0" r="1" gradientUnits="userSpaceOnUse"
            gradientTransform="translate(23.6487 11.0758) scale(14.9096 15.061)">
            <stop />
            <stop offset="1" stop-opacity="0" />
        </radialGradient>
        <radialGradient id="paint1_radial_172_66" cx="0" cy="0" r="1" gradientUnits="userSpaceOnUse"
            gradientTransform="translate(23.6487 11.0758) scale(14.9096 15.061)">
            <stop />
            <stop offset="1" stop-opacity="0" />
        </radialGradient>
    </defs>
</svg>