<svg width="16" height="16" viewBox="0 0 16 16" fill="none" xmlns="http://www.w3.org/2000/svg">
    <rect x="0.5" y="0.5" width="15" height="15" stroke="white" />
    <path d="M4.88196 7.29821H4.08311V4.72727H3V4.07412H5.96506V4.72727H4.88196V7.29821Z"
        fill="white" />
    <path
        d="M7.94684 7.37232C7.69199 7.37232 7.45674 7.33063 7.246 7.24725C7.03036 7.16387 6.84413 7.04806 6.6922 6.89519C6.53537 6.74233 6.41285 6.5663 6.32953 6.35785C6.24131 6.15402 6.1972 5.93167 6.1972 5.68616C6.1972 5.44065 6.24131 5.2183 6.32953 5.00984C6.41285 4.80602 6.53537 4.62999 6.6922 4.47713C6.84413 4.32426 7.03036 4.20845 7.246 4.12507C7.45674 4.04169 7.69199 4 7.94684 4C8.20659 4 8.44183 4.04169 8.65747 4.12507C8.86821 4.20845 9.05445 4.32426 9.21128 4.47713C9.36811 4.62999 9.49063 4.80602 9.57885 5.00984C9.66216 5.2183 9.70627 5.44065 9.70627 5.68616C9.70627 5.93167 9.66216 6.15402 9.57885 6.35785C9.49063 6.5663 9.36811 6.74233 9.21128 6.89519C9.05445 7.04806 8.86821 7.16387 8.65747 7.24725C8.44183 7.33063 8.20659 7.37232 7.94684 7.37232ZM7.94684 6.70527C8.13307 6.70527 8.2997 6.66358 8.44183 6.57556C8.58396 6.49218 8.69178 6.37174 8.77509 6.21888C8.85841 6.06601 8.89762 5.88998 8.89762 5.68616C8.89762 5.48234 8.85841 5.30168 8.77509 5.14881C8.69178 4.99595 8.58396 4.88014 8.44183 4.79213C8.2997 4.70874 8.13307 4.66705 7.94684 4.66705C7.7655 4.66705 7.60377 4.70874 7.46164 4.79213C7.31952 4.88014 7.2068 4.99595 7.12838 5.14881C7.04506 5.30168 7.00586 5.48234 7.00586 5.68616C7.00586 5.88998 7.04506 6.06601 7.12838 6.21888C7.2068 6.37174 7.31952 6.49218 7.46164 6.57556C7.60377 6.66358 7.7655 6.70527 7.94684 6.70527Z"
        fill="white" />
    <path
        d="M10.2359 7.29821V4.07412H11.6473C11.9267 4.07412 12.1717 4.12044 12.3727 4.21309C12.5736 4.30573 12.7304 4.43544 12.8383 4.6022C12.9461 4.76896 13 4.96352 13 5.18587C13 5.40822 12.9461 5.60278 12.8383 5.76954C12.7304 5.94094 12.5736 6.07064 12.3727 6.16329C12.1717 6.25594 11.9267 6.30226 11.6473 6.30226H11.0347V7.29821H10.2359ZM11.0347 5.663H11.5297C11.7601 5.663 11.9267 5.62131 12.0345 5.53793C12.1374 5.45918 12.1913 5.33874 12.1913 5.18587C12.1913 5.03301 12.1374 4.9172 12.0345 4.83382C11.9267 4.75507 11.7601 4.71338 11.5297 4.71338H11.0347V5.663Z"
        fill="white" />
    <path d="M6.31263 11.9305V9.46149L5.53338 9.66532V9.03069L7.08697 8.64621V11.9305H6.31263Z"
        fill="white" />
    <path
        d="M9.48502 12C9.20567 12 8.96062 11.9305 8.74988 11.7915C8.53914 11.6572 8.37251 11.4627 8.25979 11.2079C8.14707 10.9577 8.08825 10.6613 8.08825 10.3185C8.08825 9.98031 8.14707 9.68384 8.25979 9.42907C8.37251 9.17429 8.53914 8.97973 8.74988 8.84076C8.96062 8.70643 9.20567 8.63694 9.48502 8.63694C9.76437 8.63694 10.0143 8.70643 10.2251 8.84076C10.4358 8.97973 10.5975 9.17429 10.7103 9.42907C10.823 9.68384 10.8818 9.98031 10.8818 10.3185C10.8818 10.6613 10.823 10.9577 10.7103 11.2079C10.5975 11.4627 10.4358 11.6572 10.2251 11.7915C10.0143 11.9305 9.76437 12 9.48502 12ZM9.48502 11.3515C9.67616 11.3515 9.82318 11.2588 9.931 11.0782C10.0388 10.8975 10.0927 10.6474 10.0927 10.3185C10.0927 9.98958 10.0388 9.7348 9.931 9.55414C9.82318 9.37348 9.67616 9.28547 9.48502 9.28547C9.29388 9.28547 9.14686 9.37348 9.03903 9.55414C8.93121 9.7348 8.8773 9.98958 8.8773 10.3185C8.8773 10.6474 8.93121 10.8975 9.03903 11.0782C9.14686 11.2588 9.29388 11.3515 9.48502 11.3515Z"
        fill="white" />
</svg>