<svg width="24" height="24" viewBox="0 0 24 24" fill="none" xmlns="http://www.w3.org/2000/svg">
<rect x="0.5" y="0.5" width="23" height="23" stroke="white"/>
<path d="M7.01113 10.8596H5.73297V6.68182H4V5.62044H8.7441V6.68182H7.01113V10.8596Z" fill="white"/>
<path d="M11.9149 10.98C11.5072 10.98 11.1308 10.9123 10.7936 10.7768C10.4486 10.6413 10.1506 10.4531 9.90752 10.2047C9.65659 9.95628 9.46055 9.67024 9.32725 9.3315C9.1861 9.00029 9.11553 8.63897 9.11553 8.24001C9.11553 7.84105 9.1861 7.47973 9.32725 7.141C9.46055 6.80979 9.65659 6.52374 9.90752 6.27533C10.1506 6.02693 10.4486 5.83874 10.7936 5.70324C11.1308 5.56775 11.5072 5.5 11.9149 5.5C12.3305 5.5 12.7069 5.56775 13.052 5.70324C13.3891 5.83874 13.6871 6.02693 13.938 6.27533C14.189 6.52374 14.385 6.80979 14.5262 7.141C14.6595 7.47973 14.73 7.84105 14.73 8.24001C14.73 8.63897 14.6595 9.00029 14.5262 9.3315C14.385 9.67024 14.189 9.95628 13.938 10.2047C13.6871 10.4531 13.3891 10.6413 13.052 10.7768C12.7069 10.9123 12.3305 10.98 11.9149 10.98ZM11.9149 9.89606C12.2129 9.89606 12.4795 9.82831 12.7069 9.68529C12.9343 9.5498 13.1068 9.35408 13.2401 9.10567C13.3735 8.85727 13.4362 8.57122 13.4362 8.24001C13.4362 7.9088 13.3735 7.61523 13.2401 7.36682C13.1068 7.11841 12.9343 6.93023 12.7069 6.7872C12.4795 6.65171 12.2129 6.58396 11.9149 6.58396C11.6248 6.58396 11.366 6.65171 11.1386 6.7872C10.9112 6.93023 10.7309 7.11841 10.6054 7.36682C10.4721 7.61523 10.4094 7.9088 10.4094 8.24001C10.4094 8.57122 10.4721 8.85727 10.6054 9.10567C10.7309 9.35408 10.9112 9.5498 11.1386 9.68529C11.366 9.82831 11.6248 9.89606 11.9149 9.89606Z" fill="white"/>
<path d="M15.5774 10.8596V5.62044H17.8357C18.2827 5.62044 18.6748 5.69571 18.9963 5.84627C19.3178 5.99682 19.5687 6.20759 19.7412 6.47858C19.9137 6.74957 20 7.06572 20 7.42704C20 7.78836 19.9137 8.10452 19.7412 8.37551C19.5687 8.65402 19.3178 8.86479 18.9963 9.01534C18.6748 9.16589 18.2827 9.24117 17.8357 9.24117H16.8556V10.8596H15.5774ZM16.8556 8.20237H17.6476C18.0161 8.20237 18.2827 8.13463 18.4552 7.99913C18.6199 7.87116 18.7062 7.67545 18.7062 7.42704C18.7062 7.17863 18.6199 6.99045 18.4552 6.85495C18.2827 6.72698 18.0161 6.65924 17.6476 6.65924H16.8556V8.20237Z" fill="white"/>
<path d="M9.3002 18.3871V14.3749L8.0534 14.7061V13.6749L10.5392 13.0501V18.3871H9.3002Z" fill="white"/>
<path d="M14.376 18.5C13.9291 18.5 13.537 18.3871 13.1998 18.1613C12.8626 17.943 12.596 17.6268 12.4157 17.2128C12.2353 16.8063 12.1412 16.3246 12.1412 15.7675C12.1412 15.218 12.2353 14.7362 12.4157 14.3222C12.596 13.9082 12.8626 13.5921 13.1998 13.3662C13.537 13.1479 13.9291 13.035 14.376 13.035C14.823 13.035 15.2229 13.1479 15.5601 13.3662C15.8973 13.5921 16.156 13.9082 16.3364 14.3222C16.5168 14.7362 16.6109 15.218 16.6109 15.7675C16.6109 16.3246 16.5168 16.8063 16.3364 17.2128C16.156 17.6268 15.8973 17.943 15.5601 18.1613C15.2229 18.3871 14.823 18.5 14.376 18.5ZM14.376 17.4461C14.6818 17.4461 14.9171 17.2956 15.0896 17.002C15.2621 16.7085 15.3484 16.302 15.3484 15.7675C15.3484 15.2331 15.2621 14.8191 15.0896 14.5255C14.9171 14.2319 14.6818 14.0889 14.376 14.0889C14.0702 14.0889 13.835 14.2319 13.6625 14.5255C13.4899 14.8191 13.4037 15.2331 13.4037 15.7675C13.4037 16.302 13.4899 16.7085 13.6625 17.002C13.835 17.2956 14.0702 17.4461 14.376 17.4461Z" fill="white"/>
</svg>
